# xmcd
#
# Track frame offsets:
#	150
#	7502
#	31440
#	48002
#	60155
#	69407
#	88297
#	102365
#	134962
#	178337
#	196287
#	217782
#	223540
#
# Disc length: 3170 seconds
# Revision: 0
# Processed by: cddbd v1.5.2PL0 Copyright (c) Steve Scherf et al.
# Submitted via: dBpowerAMP V12.0
#
DISCID=b10c600d
DTITLE=Bootsy Collins and The Bootsy's New Rubber Band - Keepin' da Funk 'Alive' 4-1995
DYEAR=1997
DGENRE=R&B
TTITLE0=Intro
TTITLE1=Ahh... the Name Is Bootsy Baby
TTITLE2=Bootsy? (What's the Name of This Town?)
TTITLE3=Psychoticbumpschool
TTITLE4=The Pinnochio Theory
TTITLE5=Hollywood Squares
TTITLE6=Bernie Solo
TTITLE7=One Nation Under a Groove
TTITLE8=P Funk (Wants to Get Funked Up)
TTITLE9=Cosmic Slop
TTITLE10=Flash Light
TTITLE11=Bootzilla
TTITLE12=Roto-Rooter
EXTD=
EXTT0=
EXTT1=
EXTT2=
EXTT3=
EXTT4=
EXTT5=
EXTT6=
EXTT7=
EXTT8=
EXTT9=
EXTT10=
EXTT11=
EXTT12=
PLAYORDER=
